<svg width="46" height="46" viewBox="0 0 46 46" fill="none" xmlns="http://www.w3.org/2000/svg">
<g clip-path="url(#clip0_672_47770)">
<path d="M45.5 23C45.5 10.5736 35.4264 0.5 23 0.5C10.5736 0.5 0.5 10.5736 0.5 23C0.5 35.4264 10.5736 45.5 23 45.5C35.4264 45.5 45.5 35.4264 45.5 23Z" stroke="#DDDDDD"/>
<path d="M31.7123 19.3202L31.5933 19.3972C31.0081 19.7546 30.4985 20.2231 30.0933 20.7762C29.6913 21.3387 29.4331 21.991 29.3413 22.6762C29.216 23.4988 29.2954 24.3395 29.5723 25.1242C29.8137 25.7849 30.2058 26.3803 30.7173 26.8632C31.1532 27.2935 31.6639 27.6409 32.2243 27.8882C32.2403 27.8952 32.2563 27.9022 32.2713 27.9102C32.2863 27.9182 32.2803 27.9202 32.2913 27.9342C32.2603 28.0222 32.2273 28.1152 32.1913 28.2092C31.7381 29.4749 31.0796 30.6574 30.2423 31.7092C30.0213 31.9912 29.7933 32.2692 29.5523 32.5352C29.2432 32.8858 28.8733 33.1775 28.4603 33.3962C28.0565 33.6136 27.6013 33.7173 27.1433 33.6962C26.7879 33.6739 26.4373 33.6029 26.1013 33.4852C25.8013 33.3852 25.5013 33.2622 25.2013 33.1532C24.783 32.9979 24.3457 32.8997 23.9013 32.8612C23.4598 32.8301 23.0161 32.8659 22.5853 32.9672C22.1805 33.0684 21.7837 33.1994 21.3983 33.3592C21.0266 33.5072 20.641 33.6175 20.2473 33.6882C19.7469 33.7772 19.2313 33.6962 18.7823 33.4582C18.5047 33.3103 18.2462 33.1294 18.0123 32.9192C17.5899 32.5366 17.2063 32.1132 16.8673 31.6552C16.2854 30.9183 15.7827 30.1222 15.3673 29.2802C14.8381 28.1941 14.45 27.0448 14.2123 25.8602C14.1283 25.4337 14.0692 25.0026 14.0353 24.5692C13.9944 24.0806 13.989 23.5896 14.0193 23.1002C14.0738 21.8343 14.4826 20.6091 15.1993 19.5642C15.9806 18.4228 17.168 17.6227 18.5193 17.3272C18.9531 17.223 19.4001 17.1852 19.8453 17.2152C20.1853 17.2422 20.521 17.3093 20.8453 17.4152C21.2883 17.5572 21.7253 17.7152 22.1673 17.8642C22.4673 17.9642 22.7673 18.0482 23.0673 18.1352C23.2141 18.1763 23.3694 18.1763 23.5163 18.1352C23.9273 18.0282 24.3273 17.8872 24.7263 17.7442C25.1423 17.5962 25.5553 17.4442 25.9843 17.3352C26.4568 17.2027 26.9467 17.1424 27.4373 17.1562C28.5091 17.185 29.5524 17.5077 30.4533 18.0892C30.9454 18.4182 31.3722 18.8356 31.7123 19.3202Z" fill="black"/>
<path d="M27.7089 12C27.7089 12.2 27.7239 12.382 27.7189 12.564C27.6748 13.6431 27.2549 14.6728 26.5319 15.475C26.1339 15.9588 25.6527 16.3675 25.1109 16.682C24.7226 16.909 24.2929 17.0562 23.8469 17.115C23.6469 17.139 23.4469 17.134 23.2469 17.14C23.2213 17.1382 23.1959 17.1342 23.1709 17.128C23.1649 17.082 23.1559 17.038 23.1529 16.994C23.1146 16.476 23.1827 15.9557 23.3529 15.465C23.575 14.7759 23.944 14.1431 24.4343 13.6104C24.9246 13.0776 25.5246 12.6575 26.1929 12.379C26.5995 12.197 27.0303 12.0747 27.4719 12.016C27.5429 12.008 27.6159 12.007 27.7089 12Z" fill="black"/>
</g>
<defs>
<clipPath id="clip0_672_47770">
<rect width="46" height="46" fill="white"/>
</clipPath>
</defs>
</svg>
