<svg width="46" height="46" viewBox="0 0 46 46" fill="none" xmlns="http://www.w3.org/2000/svg">
<path d="M23 45.5C35.4264 45.5 45.5 35.4264 45.5 23C45.5 10.5736 35.4264 0.5 23 0.5C10.5736 0.5 0.5 10.5736 0.5 23C0.5 35.4264 10.5736 45.5 23 45.5Z" stroke="#DDDDDD"/>
<path d="M28.3343 13.9349C27.5789 13.8158 26.8173 13.7407 26.0533 13.7099C25.7363 13.6952 25.4189 13.6986 25.1023 13.7199C24.6315 13.7507 24.1664 13.8411 23.7183 13.9889C23.1358 14.1804 22.6032 14.4991 22.1592 14.9219C21.6704 15.3968 21.3049 15.9838 21.0943 16.6319C20.892 17.2466 20.7907 17.8899 20.7942 18.5369C20.7882 19.4539 20.7942 20.3709 20.7942 21.2879C20.7942 21.4619 20.8084 21.4409 20.6424 21.4409H17.6883C17.5653 21.4409 17.5703 21.4329 17.5703 21.5569C17.5703 22.7083 17.5703 23.8596 17.5703 25.0109C17.5703 25.1109 17.5704 25.1109 17.6704 25.1159H17.7534C18.7061 25.1159 19.6587 25.1159 20.6114 25.1159C20.8114 25.1159 20.7893 25.0829 20.7893 25.2899C20.7893 28.0992 20.7893 30.9089 20.7893 33.7189L20.8423 33.7269C21.4798 33.8263 22.1241 33.8761 22.7693 33.8759C23.4179 33.8759 24.0656 33.8254 24.7063 33.7249L24.7654 33.7159C24.7654 30.8973 24.7654 28.0789 24.7654 25.2609C24.7654 25.0979 24.7524 25.1159 24.9134 25.1159H27.6053C27.7253 25.1159 27.7242 25.1159 27.7422 24.9949C27.8089 24.5643 27.874 24.1336 27.9373 23.7029C28.0473 22.9829 28.1573 22.2629 28.2713 21.5429C28.2853 21.4569 28.2902 21.4429 28.1892 21.4429H24.9263C24.8943 21.4429 24.8634 21.4429 24.8264 21.4429C24.7894 21.4429 24.7583 21.4279 24.7603 21.3809C24.7603 21.3569 24.7603 21.3329 24.7603 21.3099C24.7603 20.5439 24.7603 19.7773 24.7603 19.0099C24.7597 18.8116 24.7845 18.614 24.8343 18.4219C24.8953 18.143 25.0282 17.8849 25.22 17.6733C25.4118 17.4617 25.6556 17.304 25.9273 17.2159C26.2059 17.1225 26.4984 17.0768 26.7923 17.0809H28.3164C28.4274 17.0809 28.4283 17.0809 28.4283 16.9709C28.4283 15.9983 28.4283 15.0256 28.4283 14.0529C28.4343 13.9639 28.4513 13.9529 28.3343 13.9349Z" fill="#1877F2"/>
</svg>
