<svg width="46" height="46" viewBox="0 0 46 46" fill="none" xmlns="http://www.w3.org/2000/svg">
<path d="M45.5 23C45.5 10.5736 35.4264 0.5 23 0.5C10.5736 0.5 0.5 10.5736 0.5 23C0.5 35.4264 10.5736 45.5 23 45.5C35.4264 45.5 45.5 35.4264 45.5 23Z" stroke="#DDDDDD"/>
<path d="M14.9986 18.861C15.5731 17.7024 16.4024 16.6891 17.4245 15.897C19.0651 14.5929 21.1244 13.9306 23.2176 14.0339C25.2219 14.0904 27.1388 14.8668 28.6175 16.2209C28.6925 16.2879 28.7036 16.321 28.6256 16.402C27.8583 17.1626 27.094 17.9266 26.3326 18.694C26.2686 18.759 26.2325 18.7739 26.1545 18.7029C25.6572 18.2382 25.0645 17.8879 24.4176 17.6763C23.7707 17.4647 23.0853 17.397 22.4095 17.478C21.3988 17.5592 20.434 17.9347 19.6343 18.5581C18.8345 19.1815 18.2349 20.0256 17.9095 20.986L17.8696 21.0859C17.8026 21.1119 17.7626 21.061 17.7196 21.027C16.8456 20.342 15.9636 19.665 15.0876 18.982C15.0486 18.949 14.9916 18.929 14.9986 18.861Z" fill="#EA4335"/>
<path d="M28.6571 29.468C28.118 29.978 27.5022 30.4001 26.8322 30.7191C25.4275 31.3886 23.8732 31.6824 22.321 31.572C20.5099 31.4775 18.7752 30.8125 17.3651 29.6721C16.3812 28.8897 15.5776 27.9042 15.0092 26.783C15.0039 26.771 14.9995 26.7587 14.9961 26.746C15.0121 26.646 15.0961 26.617 15.1611 26.569C15.8491 26.047 16.5241 25.51 17.2081 24.983C17.3861 24.846 17.5641 24.7091 17.7391 24.5681C17.7751 24.5391 17.8112 24.499 17.8682 24.52C18.0597 25.0754 18.3392 25.5964 18.696 26.063C19.2306 26.7883 19.9457 27.3611 20.7703 27.7244C21.5948 28.0877 22.5001 28.229 23.3961 28.134C24.2589 28.0775 25.0931 27.8022 25.8201 27.334C25.8391 27.3228 25.8589 27.3128 25.8792 27.304C25.9513 27.3254 26.0174 27.3635 26.0721 27.415C26.6081 27.836 27.1492 28.251 27.6862 28.671C27.9862 28.904 28.2861 29.135 28.5861 29.371C28.6071 29.397 28.6591 29.412 28.6571 29.468Z" fill="#34A853"/>
<path d="M28.6569 29.467L27.4989 28.567L25.9559 27.372C25.9279 27.351 25.9038 27.325 25.8768 27.302C26.2894 27.0131 26.6506 26.6568 26.9449 26.248C27.2652 25.7865 27.4909 25.2662 27.6089 24.717C27.6349 24.601 27.6089 24.575 27.4939 24.575C25.9986 24.575 24.5033 24.575 23.0079 24.575C22.8399 24.575 22.8398 24.575 22.8398 24.403C22.8398 23.371 22.8398 22.339 22.8398 21.303C22.8398 21.191 22.8569 21.145 22.9879 21.146C25.6432 21.1507 28.2982 21.1507 30.9529 21.146C31.0739 21.146 31.1188 21.175 31.1368 21.297C31.5063 23.3674 31.1958 25.5017 30.2518 27.381C29.8579 28.143 29.336 28.8317 28.7089 29.417C28.6925 29.4347 28.6752 29.4514 28.6569 29.467Z" fill="#4285F4"/>
<path d="M17.8661 24.5198C17.4075 24.8732 16.9488 25.2269 16.4902 25.5809C15.9908 25.9682 15.4908 26.3562 14.9902 26.7449C14.8016 26.4116 14.6481 26.0597 14.5322 25.6948C14.1679 24.6609 14.0036 23.5672 14.0481 22.4719C14.0945 21.2435 14.3991 20.0386 14.9422 18.9359C14.9576 18.9095 14.9749 18.8845 14.9942 18.8608C15.3162 19.1138 15.6371 19.3678 15.9601 19.6188C16.5501 20.0788 17.1412 20.5382 17.7332 20.9968C17.7742 21.0288 17.8212 21.0549 17.8652 21.0839C17.8102 21.3369 17.7261 21.5838 17.6791 21.8378C17.5205 22.6935 17.5748 23.5751 17.8372 24.4048C17.849 24.4426 17.8586 24.481 17.8661 24.5198Z" fill="#FCBC05"/>
</svg>
